<mxfile host="app.diagrams.net" modified="2023-12-04T10:17:43.795Z" agent="Mozilla/5.0 (Windows NT 10.0; Win64; x64) AppleWebKit/537.36 (KHTML, like Gecko) Chrome/119.0.0.0 Safari/537.36 Edg/119.0.0.0" etag="vMkM8iTsWdpIC1EOxA4S" version="22.1.5" type="device">
  <diagram name="Stránka-1" id="0X9DFKOwmzGsk2DYTmvi">
    <mxGraphModel dx="929" dy="418" grid="1" gridSize="10" guides="1" tooltips="1" connect="1" arrows="1" fold="1" page="1" pageScale="1" pageWidth="827" pageHeight="1169" math="0" shadow="0">
      <root>
        <mxCell id="0" />
        <mxCell id="1" parent="0" />
        <mxCell id="l-Jl_tgLMfpG-uCRkCTe-3" style="edgeStyle=orthogonalEdgeStyle;rounded=0;orthogonalLoop=1;jettySize=auto;html=1;entryX=0.5;entryY=0;entryDx=0;entryDy=0;" edge="1" parent="1" source="l-Jl_tgLMfpG-uCRkCTe-1" target="l-Jl_tgLMfpG-uCRkCTe-2">
          <mxGeometry relative="1" as="geometry" />
        </mxCell>
        <mxCell id="l-Jl_tgLMfpG-uCRkCTe-1" value="Lineární rovnice&lt;br&gt;Ax + B = 0" style="ellipse;whiteSpace=wrap;html=1;" vertex="1" parent="1">
          <mxGeometry x="340" y="50" width="120" height="80" as="geometry" />
        </mxCell>
        <mxCell id="l-Jl_tgLMfpG-uCRkCTe-7" value="" style="edgeStyle=orthogonalEdgeStyle;rounded=0;orthogonalLoop=1;jettySize=auto;html=1;" edge="1" parent="1" source="l-Jl_tgLMfpG-uCRkCTe-2" target="l-Jl_tgLMfpG-uCRkCTe-6">
          <mxGeometry relative="1" as="geometry" />
        </mxCell>
        <mxCell id="l-Jl_tgLMfpG-uCRkCTe-2" value="čísla A a B" style="shape=parallelogram;perimeter=parallelogramPerimeter;whiteSpace=wrap;html=1;fixedSize=1;" vertex="1" parent="1">
          <mxGeometry x="355" y="160" width="90" height="40" as="geometry" />
        </mxCell>
        <mxCell id="l-Jl_tgLMfpG-uCRkCTe-9" value="" style="edgeStyle=orthogonalEdgeStyle;rounded=0;orthogonalLoop=1;jettySize=auto;html=1;" edge="1" parent="1" source="l-Jl_tgLMfpG-uCRkCTe-6" target="l-Jl_tgLMfpG-uCRkCTe-8">
          <mxGeometry relative="1" as="geometry" />
        </mxCell>
        <mxCell id="l-Jl_tgLMfpG-uCRkCTe-13" value="Ano" style="edgeLabel;html=1;align=center;verticalAlign=middle;resizable=0;points=[];" vertex="1" connectable="0" parent="l-Jl_tgLMfpG-uCRkCTe-9">
          <mxGeometry x="0.15" y="-2" relative="1" as="geometry">
            <mxPoint as="offset" />
          </mxGeometry>
        </mxCell>
        <mxCell id="l-Jl_tgLMfpG-uCRkCTe-17" value="" style="edgeStyle=orthogonalEdgeStyle;rounded=0;orthogonalLoop=1;jettySize=auto;html=1;" edge="1" parent="1" source="l-Jl_tgLMfpG-uCRkCTe-6" target="l-Jl_tgLMfpG-uCRkCTe-16">
          <mxGeometry relative="1" as="geometry" />
        </mxCell>
        <mxCell id="l-Jl_tgLMfpG-uCRkCTe-18" value="Ne" style="edgeLabel;html=1;align=center;verticalAlign=middle;resizable=0;points=[];" vertex="1" connectable="0" parent="l-Jl_tgLMfpG-uCRkCTe-17">
          <mxGeometry x="-0.175" relative="1" as="geometry">
            <mxPoint as="offset" />
          </mxGeometry>
        </mxCell>
        <mxCell id="l-Jl_tgLMfpG-uCRkCTe-6" value="A == 0?" style="rhombus;whiteSpace=wrap;html=1;" vertex="1" parent="1">
          <mxGeometry x="360" y="220" width="80" height="80" as="geometry" />
        </mxCell>
        <mxCell id="l-Jl_tgLMfpG-uCRkCTe-11" value="" style="edgeStyle=orthogonalEdgeStyle;rounded=0;orthogonalLoop=1;jettySize=auto;html=1;" edge="1" parent="1" source="l-Jl_tgLMfpG-uCRkCTe-8" target="l-Jl_tgLMfpG-uCRkCTe-10">
          <mxGeometry relative="1" as="geometry" />
        </mxCell>
        <mxCell id="l-Jl_tgLMfpG-uCRkCTe-12" value="Ne" style="edgeLabel;html=1;align=center;verticalAlign=middle;resizable=0;points=[];" vertex="1" connectable="0" parent="l-Jl_tgLMfpG-uCRkCTe-11">
          <mxGeometry x="-0.2667" y="4" relative="1" as="geometry">
            <mxPoint as="offset" />
          </mxGeometry>
        </mxCell>
        <mxCell id="l-Jl_tgLMfpG-uCRkCTe-20" value="" style="edgeStyle=orthogonalEdgeStyle;rounded=0;orthogonalLoop=1;jettySize=auto;html=1;" edge="1" parent="1" source="l-Jl_tgLMfpG-uCRkCTe-8" target="l-Jl_tgLMfpG-uCRkCTe-19">
          <mxGeometry relative="1" as="geometry" />
        </mxCell>
        <mxCell id="l-Jl_tgLMfpG-uCRkCTe-21" value="Ano" style="edgeLabel;html=1;align=center;verticalAlign=middle;resizable=0;points=[];" vertex="1" connectable="0" parent="l-Jl_tgLMfpG-uCRkCTe-20">
          <mxGeometry x="-0.2" y="-1" relative="1" as="geometry">
            <mxPoint as="offset" />
          </mxGeometry>
        </mxCell>
        <mxCell id="l-Jl_tgLMfpG-uCRkCTe-8" value="B == 0?" style="rhombus;whiteSpace=wrap;html=1;direction=south;" vertex="1" parent="1">
          <mxGeometry x="490" y="220" width="80" height="80" as="geometry" />
        </mxCell>
        <mxCell id="l-Jl_tgLMfpG-uCRkCTe-10" value="Nemá řešení" style="ellipse;whiteSpace=wrap;html=1;" vertex="1" parent="1">
          <mxGeometry x="490" y="340" width="80" height="40" as="geometry" />
        </mxCell>
        <mxCell id="l-Jl_tgLMfpG-uCRkCTe-16" value="-B/A" style="ellipse;whiteSpace=wrap;html=1;" vertex="1" parent="1">
          <mxGeometry x="375" y="340" width="50" height="40" as="geometry" />
        </mxCell>
        <mxCell id="l-Jl_tgLMfpG-uCRkCTe-19" value="celé R" style="ellipse;whiteSpace=wrap;html=1;" vertex="1" parent="1">
          <mxGeometry x="610" y="235" width="50" height="50" as="geometry" />
        </mxCell>
      </root>
    </mxGraphModel>
  </diagram>
</mxfile>
